<svg width="29" height="32" viewBox="0 0 29 32" fill="none" xmlns="http://www.w3.org/2000/svg">
<path fill-rule="evenodd" clip-rule="evenodd" d="M28.4445 16C28.4445 18.5544 27.9124 20.969 26.9661 23.1111H15.1111C17.3002 19.7584 19.5556 15.6984 19.5556 11.5556C19.5556 6.22432 15.9453 1.73631 11.0362 0.403015C12.0605 0.139299 13.1269 0 14.2222 0C22.077 0 28.4445 7.16345 28.4445 16ZM16 11.5556C16 7.13728 12.4183 3.55556 8 3.55556C2.08831 3.55556 0 11.1174 0 16C0 24.8366 6.36751 32 14.2222 32C18.4344 32 22.2188 29.94 24.823 26.6667H8C8.31274 26.2679 8.64022 25.857 8.97663 25.4349C12.1028 21.5122 16 16.622 16 11.5556Z" fill="#7859CF"/>
</svg>
