<svg viewBox="0 0 52 56" fill="none" xmlns="http://www.w3.org/2000/svg"><path d="M41.7 22.12c.77-6.57 1.5-12.78 7.29-18.12-26.49-.01-34.15 8.12-38 13.99-8.54 13.04-.91 25.68.72 28.09-.95 1.88-1.87 3.74-2.75 5.51l-1.96 3.97.88.43 1.98-3.99c.85-1.72 1.73-3.51 2.65-5.32 2.59.86 14.45 4.18 21.99-4.69 5.65-6.65 6.45-13.43 7.2-19.87Z" fill="#F0EBFF" fill-rule="evenodd"/><path d="M8.23 41.05c3.95-7.8 8.45-15.96 13.03-21.06l.74.66c-4.57 5.08-9.07 13.3-13.04 21.12a26.5 26.5 0 0 0 7.12 1.23c4.39.12 9.67-.96 13.65-5.65 5.46-6.43 6.23-12.95 6.99-19.41l.01-.13c.68-5.81 1.39-11.63 5.88-16.79-11.79.23-19.49 2.16-24.67 4.67a23.88 23.88 0 0 0-10.11 8.85 22.6 22.6 0 0 0-2.93 18.88 28.33 28.33 0 0 0 3.33 7.63Zm-.52 1.03c-1.63-2.41-9.26-15.05-.72-28.09 3.78-5.76 11.23-13.7 36.56-13.99h1.44c-.35.33-.69.66-1.02 1-4.86 5.12-5.55 10.96-6.27 17.12-.75 6.44-1.55 13.22-7.2 19.87-7.54 8.87-19.4 5.55-21.99 4.69-.92 1.81-1.8 3.6-2.65 5.32l-1.98 3.99-.88-.43 1.96-3.97c.88-1.77 1.8-3.63 2.75-5.51Z" fill="#7859CF" fill-rule="evenodd"/></svg>